<?xml version="1.0" standalone="no"?>
<!DOCTYPE svg PUBLIC "-//W3C//DTD SVG 20010904//EN"
 "http://www.w3.org/TR/2001/REC-SVG-20010904/DTD/svg10.dtd">
<svg version="1.0" xmlns="http://www.w3.org/2000/svg"
 width="620.000000pt" height="620.000000pt" viewBox="0 0 620.000000 620.000000"
 preserveAspectRatio="xMidYMid meet">
<metadata>
Created by potrace 1.14, written by Peter Selinger 2001-2017
</metadata>
<g transform="translate(0.000000,620.000000) scale(0.100000,-0.100000)"
fill="#000000" stroke="none">
<path d="M3326 6072 c-21 -70 -40 -136 -43 -148 -4 -17 19 -41 119 -126 180
-154 329 -301 299 -294 -63 13 -392 29 -402 19 -14 -14 21 -84 77 -150 24 -28
44 -53 44 -56 0 -3 -30 -15 -67 -28 -220 -71 -473 -204 -698 -363 -98 -70
-269 -152 -367 -178 -46 -12 -87 -25 -93 -30 -28 -26 194 -157 350 -208 39
-12 74 -26 79 -31 5 -4 -1 -41 -12 -86 -12 -43 -28 -111 -37 -152 -8 -40 -24
-86 -35 -101 -75 -105 -91 -224 -45 -335 14 -33 25 -60 25 -60 0 -1 -30 1 -68
3 -178 10 -278 -83 -289 -271 -10 -157 38 -222 209 -280 16 -6 16 -10 3 -52
-7 -25 -19 -52 -25 -60 -7 -8 -60 -44 -119 -81 -58 -36 -150 -93 -203 -127
-54 -34 -151 -96 -215 -136 -65 -41 -153 -98 -196 -127 l-79 -52 -105 50
c-121 57 -269 98 -352 98 -69 0 -147 -35 -189 -84 -18 -23 -45 -39 -86 -51
-100 -31 -190 -117 -242 -231 -19 -43 -36 -61 -102 -107 -90 -64 -202 -178
-232 -238 -21 -41 -21 -68 0 -129 5 -14 10 -62 13 -108 l4 -83 -30 -16 c-17
-8 -49 -21 -71 -27 -58 -17 -68 -41 -62 -151 3 -49 14 -142 25 -205 17 -93 25
-119 43 -134 37 -31 158 -84 226 -99 l64 -15 26 43 26 44 114 -222 c63 -122
152 -290 198 -374 46 -84 84 -155 84 -159 0 -4 -23 -31 -50 -60 -59 -62 -61
-75 -25 -189 14 -44 25 -86 25 -92 0 -10 -95 -13 -423 -16 -232 -1 974 -3
2681 -5 l3102 -2 -2 3103 -3 3102 -2 -3098 -3 -3097 -149 0 -150 0 6 144 c5
124 4 149 -10 170 -22 33 -98 85 -137 92 -16 4 -30 8 -30 10 0 2 -11 64 -26
136 -106 553 -306 968 -614 1276 -100 99 -183 163 -270 207 -58 30 -78 49
-197 192 -73 87 -161 189 -197 227 l-64 69 -22 179 c-12 99 -20 182 -17 184 3
3 27 -16 53 -42 78 -76 222 -134 330 -134 19 0 34 5 34 11 0 5 -22 38 -50 71
-27 34 -47 65 -44 70 3 4 20 8 38 8 49 0 135 28 188 62 90 57 180 178 213 286
9 31 -9 29 -99 -14 -42 -20 -98 -39 -124 -42 l-46 -5 55 64 c31 35 65 80 77
100 43 71 24 77 -63 19 -33 -22 -65 -40 -71 -40 -6 0 -9 21 -6 59 7 93 -18
161 -82 225 l-54 53 14 54 c8 29 14 67 14 84 0 69 12 106 39 119 14 7 32 11
38 9 7 -3 16 3 19 12 4 9 24 25 46 36 49 25 41 35 141 -166 168 -334 279 -604
394 -955 73 -227 165 -586 198 -780 9 -52 18 -97 20 -100 4 -7 51 -311 66
-425 5 -38 13 -137 18 -219 7 -102 15 -154 24 -163 21 -22 30 -2 60 132 139
625 207 1232 194 1725 -14 473 -82 894 -197 1218 -17 46 -30 87 -30 92 0 5 21
12 46 16 26 4 56 16 67 27 18 18 19 28 13 112 -12 161 -43 242 -130 333 -50
54 -137 112 -166 112 -8 0 -33 -22 -55 -50 -22 -27 -43 -49 -46 -50 -3 0 -46
53 -95 117 -214 283 -518 624 -903 1015 -215 218 -247 248 -275 248 -29 0 -14
-17 224 -257 233 -235 329 -335 476 -493 144 -157 383 -447 505 -615 146 -201
269 -434 347 -655 133 -381 204 -1034 173 -1582 -18 -324 -81 -830 -131 -1051
-13 -62 -23 -57 -16 8 31 303 41 996 18 1270 -18 203 -60 525 -83 635 -104
495 -194 759 -349 1030 -37 65 -52 103 -60 155 -6 39 -13 77 -16 86 -5 19
-107 89 -128 89 -8 0 -58 55 -112 123 -55 67 -146 176 -204 242 -141 161 -579
605 -822 831 l-196 184 -170 0 -169 0 -27 -80 c-14 -43 -26 -90 -26 -103 0
-34 45 -97 167 -231 187 -205 256 -291 238 -294 -10 -2 -52 30 -103 77 -48 45
-156 142 -240 217 -96 86 -151 141 -148 150 3 8 17 53 31 101 15 49 33 105 40
126 13 35 12 37 -8 37 -19 0 -27 -15 -61 -128z m838 -267 l126 -120 0 -165 c0
-91 -5 -172 -10 -180 -8 -13 -14 -13 -42 4 -18 11 -80 38 -138 61 l-105 42 0
129 c1 192 17 359 34 352 5 -2 65 -57 135 -123z m-564 -330 c178 -20 234 -30
360 -67 107 -30 307 -120 347 -154 12 -10 30 -25 40 -32 10 -7 -9 1 -42 18
-92 48 -196 88 -314 120 -127 34 -225 48 -390 57 -142 7 -137 13 -76 -82 19
-31 35 -60 35 -65 0 -13 -55 -35 -107 -43 -110 -18 -349 -140 -673 -345 -247
-156 -331 -214 -327 -226 9 -26 195 -81 447 -132 41 -8 129 -26 195 -39 l120
-24 -90 5 c-49 2 -137 6 -195 8 -205 5 -465 85 -618 188 l-52 35 67 22 c111
36 244 104 359 183 251 171 476 287 682 352 46 14 89 26 96 26 8 0 19 6 25 14
10 11 3 23 -35 58 -48 44 -104 114 -104 130 0 12 99 10 250 -7z m1635 -799 c8
-27 13 -52 10 -56 -4 -7 -69 9 -122 31 -25 9 -29 38 -17 111 l7 37 53 -37 c46
-31 57 -45 69 -86z m-374 -135 c-38 -52 -119 -89 -136 -62 -3 6 30 32 72 60
81 52 100 52 64 2z m-1022 -47 c-64 -67 -121 -102 -156 -97 -25 4 -38 -1 -59
-22 -38 -38 -28 -77 34 -136 62 -57 128 -80 250 -87 85 -4 92 -3 92 15 0 11
-31 45 -76 83 l-76 65 53 8 c126 18 208 41 277 77 40 21 71 32 68 25 -43 -114
-154 -496 -191 -660 -36 -159 -46 -353 -20 -401 24 -44 55 -56 111 -44 89 20
179 100 233 209 34 67 59 85 135 95 72 9 123 -10 178 -67 58 -58 73 -105 64
-201 -15 -165 -117 -266 -268 -266 -51 0 -179 27 -240 50 -35 13 -50 15 -55 7
-4 -7 -21 -55 -38 -107 -120 -366 -361 -655 -642 -769 -139 -57 -193 -66 -383
-65 -151 0 -192 4 -295 27 -162 36 -247 79 -346 177 -54 54 -86 95 -110 145
-34 70 -34 70 -34 215 l1 145 56 200 c31 110 79 283 107 384 27 101 52 185 54
188 3 2 26 -10 52 -26 27 -17 63 -35 82 -42 20 -6 33 -17 33 -28 0 -35 42
-138 75 -183 68 -93 180 -129 280 -91 111 43 225 141 225 195 0 30 -25 21 -51
-19 -35 -54 -114 -110 -187 -133 -85 -26 -142 -15 -199 40 -63 60 -97 138 -97
224 -1 67 0 71 27 84 36 18 161 40 272 50 70 5 90 10 90 22 0 10 -12 16 -33
18 -32 3 -33 5 -25 30 4 15 8 65 8 112 -1 73 -5 93 -28 137 -36 69 -88 120
-156 152 -75 35 -191 36 -265 3 -27 -12 -51 -21 -52 -19 -5 5 24 144 43 205
12 39 20 51 32 48 9 -3 35 -8 58 -11 24 -4 45 -10 48 -15 2 -4 -23 -29 -56
-56 -60 -48 -86 -80 -75 -92 9 -9 193 -3 262 9 76 13 135 45 154 85 l15 31
135 6 c146 6 387 44 522 82 120 34 129 33 87 -11z m50 -39 l-21 -35 29 0 c69
0 249 37 316 65 9 4 17 3 17 -3 0 -16 -119 -74 -194 -94 -78 -20 -266 -36
-266 -22 0 9 121 123 132 124 4 0 -2 -16 -13 -35z m397 -125 c-14 -47 -39
-130 -56 -185 -120 -380 -144 -495 -137 -639 3 -56 8 -111 12 -123 11 -35 -23
-30 -36 5 -19 47 -4 233 31 387 53 236 202 712 207 665 2 -14 -8 -63 -21 -110z
m-1380 -129 c60 -27 119 -84 148 -144 31 -61 35 -163 10 -226 -15 -38 -17 -39
-77 -45 -162 -17 -244 -49 -254 -98 -3 -16 -9 -30 -13 -33 -14 -9 -110 47
-141 83 -51 57 -73 117 -73 197 0 115 62 211 168 261 66 31 171 33 232 5z
m2110 -336 c30 -36 102 -198 153 -343 50 -140 69 -213 32 -122 -36 88 -153
337 -221 467 -72 138 -84 187 -19 80 21 -34 46 -71 55 -82z m-2500 -168 c4 -3
-9 -64 -29 -134 -20 -71 -47 -170 -61 -222 -14 -51 -27 -96 -30 -98 -10 -10
-86 19 -125 48 -58 41 -75 85 -68 174 3 38 11 87 17 108 14 47 78 113 122 126
36 11 163 10 174 -2z m1724 -654 c11 -38 67 -458 72 -534 2 -36 -3 -45 -58
-100 -183 -189 -528 -387 -929 -533 -55 -20 -110 -41 -123 -46 -12 -5 -77 -26
-144 -45 -227 -65 -238 -57 -238 168 0 184 7 240 29 231 9 -3 57 -12 106 -20
262 -40 520 11 729 144 50 32 167 133 216 186 126 138 259 379 316 574 6 21
13 14 24 -25z m-1907 -45 c-3 -13 -10 -29 -16 -36 -20 -26 -637 -432 -656
-432 -11 0 -32 5 -48 11 -27 10 -27 11 67 71 225 146 644 408 651 408 4 0 5
-10 2 -22z m-1189 -328 c89 -13 200 -51 306 -106 47 -24 120 -53 163 -64 93
-23 181 -68 238 -121 l42 -38 -7 -63 c-15 -130 -121 -395 -178 -443 -36 -31
-179 -100 -224 -110 -20 -4 -43 -21 -64 -46 -52 -65 -83 -79 -177 -79 -99 0
-133 11 -133 42 0 39 -51 252 -65 273 -7 11 -30 38 -51 60 -22 23 -65 69 -97
103 -56 59 -87 77 -87 49 0 -7 43 -59 95 -117 52 -57 101 -118 109 -135 25
-54 47 -216 40 -295 -7 -68 -11 -78 -46 -116 -21 -23 -52 -47 -68 -54 -37 -15
-134 -9 -174 11 -29 13 -30 17 -30 85 -1 66 -5 79 -56 180 l-55 109 -50 12
c-78 20 -91 17 -187 -42 -50 -30 -95 -52 -99 -49 -5 3 -9 36 -9 73 0 42 -6 80
-15 97 -8 16 -15 40 -15 55 0 57 103 173 247 277 63 46 76 62 108 127 54 109
166 204 242 205 13 0 41 19 66 45 43 43 115 85 147 85 8 0 46 -5 84 -10z
m1215 -168 c63 -123 204 -230 379 -287 49 -16 52 -19 52 -50 0 -33 -21 -65
-42 -65 -19 0 -171 -81 -248 -133 -228 -152 -421 -364 -574 -631 l-28 -48 -27
40 c-14 22 -44 76 -65 121 l-40 80 26 24 c18 17 29 40 34 72 10 68 -2 213 -20
240 -14 22 -13 29 18 97 43 93 71 175 88 263 13 64 18 72 54 96 84 57 350 217
361 218 7 1 21 -16 32 -37z m2065 -103 c31 -33 56 -64 56 -69 0 -13 -104 -103
-225 -194 -259 -196 -653 -435 -1038 -631 -108 -55 -199 -107 -202 -115 -4 -8
-15 -114 -26 -235 -10 -121 -23 -254 -29 -295 -41 -317 -53 -402 -75 -525 -14
-77 -35 -182 -47 -232 l-22 -93 -778 0 c-428 0 -778 2 -778 5 0 13 120 276
192 418 338 676 723 1150 1115 1370 71 40 175 87 194 87 4 0 9 -18 13 -41 4
-22 16 -58 26 -80 19 -36 19 -39 3 -39 -10 0 -35 5 -56 11 -21 5 -71 16 -112
23 -64 11 -78 11 -106 -2 -17 -9 -36 -27 -42 -40 -11 -23 -8 -28 38 -68 45
-40 47 -44 25 -44 -14 0 -34 -7 -44 -15 -11 -8 -29 -15 -40 -15 -12 0 -40 -9
-63 -20 -59 -26 -63 -53 -22 -120 l33 -53 -24 -16 c-13 -9 -41 -23 -63 -31
-22 -8 -49 -27 -59 -41 -32 -43 -13 -63 79 -84 43 -10 104 -32 135 -49 65 -34
97 -31 129 14 16 23 17 30 5 75 -8 28 -10 54 -6 59 5 4 58 9 118 10 120 1 142
10 142 56 0 14 -13 46 -29 71 -16 24 -33 56 -36 72 -7 26 -6 27 34 27 22 0 72
-5 111 -12 67 -12 70 -11 95 12 15 14 25 34 25 52 0 30 -33 52 -115 78 -22 7
-43 16 -48 19 -4 4 28 15 70 25 271 63 737 255 983 406 129 79 259 181 331
259 35 38 67 70 70 70 4 1 32 -26 63 -60z m288 -360 c168 -35 434 -280 601
-555 151 -249 254 -513 323 -829 39 -178 71 -427 60 -465 -10 -37 -56 -68
-148 -100 -239 -82 -631 -95 -1113 -35 -115 14 -245 32 -289 40 -43 8 -81 15
-84 15 -2 0 -2 33 2 73 4 39 14 142 22 227 18 191 20 570 4 858 l-12 217 26
100 c28 107 84 231 140 306 37 51 151 131 206 147 48 14 198 14 262 1z m-2927
-275 c10 -89 0 -166 -22 -182 -10 -7 -65 -43 -123 -80 -58 -37 -139 -91 -180
-120 -74 -53 -75 -53 -137 -49 -39 3 -77 13 -105 28 -38 21 -44 30 -52 70 -5
25 -6 62 -2 82 l7 37 80 0 c95 0 135 17 195 83 29 31 56 49 95 62 65 22 142
64 189 104 19 17 38 30 42 31 3 0 10 -30 13 -66z m-1227 1 c17 -4 32 -10 32
-14 0 -8 -9 -12 -230 -110 -96 -43 -134 -65 -132 -76 2 -11 -4 -13 -28 -8 -24
4 -36 0 -56 -18 l-25 -24 3 38 c3 37 6 40 57 58 65 22 140 61 241 123 41 25
81 44 90 42 8 -3 30 -7 48 -11z m557 -282 c0 -128 38 -169 179 -194 73 -12
111 -7 141 21 19 16 158 112 252 172 l43 28 36 -73 c20 -39 56 -102 81 -139
l44 -67 -54 -73 c-147 -201 -286 -437 -445 -754 l-50 -100 -89 -41 c-111 -52
-181 -75 -202 -68 -27 9 -68 77 -303 510 -91 166 -228 442 -228 458 0 13 64
121 127 214 l36 52 28 -28 c33 -33 65 -41 169 -41 75 0 79 1 128 40 58 47 92
96 92 134 0 14 3 26 8 26 4 0 7 -35 7 -77z m1555 4 c35 -58 34 -57 7 -57 -13
0 -46 -7 -73 -15 -47 -14 -50 -14 -70 8 -12 12 -24 34 -28 49 -6 25 -3 28 36
38 24 6 48 13 53 15 33 12 51 2 75 -38z m575 -25 c-6 -5 -38 -30 -72 -56 -35
-26 -67 -55 -72 -64 -4 -9 -11 -84 -14 -167 -3 -82 -11 -177 -16 -210 -25
-140 -71 -460 -86 -590 -13 -115 -44 -296 -61 -352 -2 -7 -16 -13 -33 -13
l-29 0 14 40 c18 53 49 222 74 400 11 80 26 190 35 245 8 55 19 143 25 195 6
52 15 127 21 165 5 39 13 126 17 195 l7 124 95 48 c97 48 111 55 95 40z m2579
-1134 l42 -43 -4 -137 -4 -138 -216 1 c-119 1 -208 3 -197 6 77 17 213 70 248
97 40 31 42 34 44 91 5 116 14 165 29 165 8 0 34 -19 58 -42z m-4846 -116 l26
-34 -40 4 c-33 2 -39 0 -39 -17 0 -48 191 -18 328 52 27 13 51 23 53 21 2 -2
-18 -54 -44 -116 l-47 -112 -169 2 -170 3 -21 85 c-12 47 -25 95 -29 107 -6
18 2 32 35 67 l41 46 25 -38 c14 -20 37 -52 51 -70z m3046 -26 c-6 -96 -5
-104 12 -109 17 -5 290 -49 369 -60 17 -2 -105 -4 -270 -3 l-299 1 -14 68
c-20 94 -14 104 100 160 51 26 97 47 101 47 4 0 5 -47 1 -104z"/>
<path d="M3460 4176 c-96 -20 -180 -89 -222 -181 -18 -39 -23 -67 -23 -130 1
-72 4 -87 34 -143 38 -70 69 -100 145 -140 44 -23 63 -27 136 -27 78 0 90 3
148 34 113 62 166 149 167 276 0 66 -5 90 -26 135 -47 98 -128 160 -233 179
-33 6 -62 11 -65 10 -3 0 -31 -6 -61 -13z m177 -52 c112 -45 184 -168 168
-289 -10 -82 -14 -83 -86 -29 -70 52 -179 105 -249 122 -25 6 -80 14 -122 18
-49 4 -78 11 -78 18 0 26 59 103 99 130 72 50 187 63 268 30z m-160 -240 c77
-20 179 -75 238 -129 l50 -45 -47 -44 c-161 -149 -420 -63 -460 153 -17 91
-13 95 83 87 44 -4 106 -14 136 -22z"/>
<path d="M3535 3349 c-4 -6 7 -28 25 -50 l32 -40 -28 -22 -28 -21 35 -7 c24
-6 39 -3 51 8 12 11 21 12 37 4 11 -6 27 -11 35 -11 28 0 17 29 -17 45 -18 8
-53 36 -77 60 -47 47 -55 52 -65 34z"/>
<path d="M2755 3219 c-20 -28 -34 -57 -32 -64 3 -6 19 -15 36 -18 25 -5 31
-12 37 -43 11 -60 -3 -173 -34 -277 -32 -107 -45 -128 -64 -109 -16 16 -48 15
-48 -1 0 -26 76 -74 175 -109 462 -165 753 26 799 525 5 53 4 67 -7 67 -20 0
-44 -30 -53 -65 -4 -16 -11 -35 -16 -42 -6 -7 -5 -26 1 -50 16 -56 14 -60 -11
-23 -22 31 -26 33 -78 33 -30 -1 -91 -10 -135 -22 -118 -30 -257 -44 -360 -37
-49 4 -98 9 -107 12 -19 6 -22 30 -12 81 l6 30 206 7 c220 6 283 14 289 33 3
9 -41 11 -194 6 -191 -5 -346 6 -366 26 -5 5 1 23 12 41 19 32 20 50 1 50 -4
0 -25 -23 -45 -51z"/>
<path d="M2916 3954 c-21 -20 -20 -58 0 -79 25 -24 75 -16 93 16 13 24 13 29
-2 53 -20 30 -66 35 -91 10z"/>
<path d="M1264 2295 c-5 -19 -12 -25 -27 -23 -37 5 -31 -26 9 -45 49 -24 127
-91 160 -138 22 -33 27 -52 32 -129 5 -88 17 -120 42 -105 12 7 4 162 -11 212
-13 41 -59 99 -112 141 -32 26 -43 42 -47 70 -6 46 -36 57 -46 17z"/>
</g>
</svg>
